<?xml version="1.0" standalone="no"?>
<!DOCTYPE svg PUBLIC "-//W3C//DTD SVG 20010904//EN"
 "http://www.w3.org/TR/2001/REC-SVG-20010904/DTD/svg10.dtd">
<svg version="1.0" xmlns="http://www.w3.org/2000/svg"
 width="1280.000000pt" height="1280.000000pt" viewBox="0 0 1280.000000 1280.000000"
 preserveAspectRatio="xMidYMid meet">

<g transform="translate(0.000000,1280.000000) scale(0.100000,-0.100000)"
fill="#000000" stroke="none">
<path d="M6245 10387 c-9 -10 -79 -131 -129 -222 -6 -11 -77 -130 -157 -265
-189 -316 -283 -478 -329 -565 -39 -73 -100 -187 -155 -290 -55 -103 -150
-283 -237 -453 l-83 -163 -59 -24 c-33 -14 -61 -23 -62 -22 -5 6 -56 110 -82
167 -17 36 -49 106 -72 155 -23 50 -55 117 -70 150 -15 33 -47 101 -70 150
-23 50 -55 117 -70 150 -48 104 -110 237 -150 320 -36 76 -82 175 -137 295
-14 30 -45 98 -70 150 -24 52 -54 116 -66 142 -22 48 -43 66 -59 50 -4 -4 -39
-69 -76 -143 -38 -74 -103 -199 -144 -279 -159 -306 -260 -502 -513 -995 -54
-104 -130 -253 -170 -330 -40 -77 -114 -221 -165 -320 -51 -99 -125 -243 -165
-320 -40 -77 -119 -230 -175 -340 -57 -110 -132 -256 -168 -325 -35 -69 -106
-206 -157 -305 -123 -240 -236 -458 -327 -635 -42 -80 -118 -228 -171 -330
-52 -102 -127 -248 -167 -325 -40 -77 -119 -230 -175 -340 -56 -110 -135 -263
-175 -340 -40 -77 -110 -212 -155 -300 -45 -88 -116 -225 -157 -305 -42 -80
-116 -224 -166 -320 -49 -96 -133 -259 -185 -361 -73 -141 -94 -188 -85 -197
9 -9 398 -12 1578 -12 861 0 1570 4 1577 8 10 6 233 453 455 912 39 80 178
363 309 629 132 266 239 489 239 496 0 13 -48 110 -155 310 -32 61 -78 148
-102 195 -25 47 -71 135 -103 195 -33 61 -74 139 -93 175 -18 36 -41 67 -51
68 -21 5 -53 -23 -73 -63 -8 -16 -39 -68 -67 -115 -86 -141 -144 -237 -244
-405 -122 -205 -162 -275 -235 -405 -19 -34 -332 -555 -429 -715 -57 -94 -53
-87 -118 -195 -67 -112 -62 -103 -120 -197 -27 -46 -50 -87 -50 -93 0 -5 -3
-10 -8 -10 -4 0 -16 -16 -26 -35 -35 -65 -20 -64 -246 -14 -47 10 -123 25
-170 34 -47 8 -101 19 -120 24 -19 5 -69 15 -110 22 -41 7 -79 15 -83 19 -10
9 13 62 69 160 43 78 84 152 152 280 28 52 77 145 110 205 113 210 680 1280
727 1374 26 52 65 135 87 185 22 50 70 147 107 216 38 69 122 231 189 360 66
129 133 260 149 290 15 30 53 109 83 175 30 66 75 160 100 210 41 81 50 92 93
114 27 14 72 26 102 29 62 5 46 27 156 -203 42 -88 116 -241 164 -340 48 -99
109 -225 135 -280 42 -89 210 -434 315 -648 22 -46 47 -82 58 -86 26 -10 112
4 138 22 18 13 310 466 439 682 173 290 273 450 360 580 25 39 66 103 89 144
36 60 45 71 56 60 13 -15 52 -125 135 -384 28 -88 64 -188 81 -223 16 -34 29
-67 29 -73 0 -5 -31 -72 -68 -147 -38 -75 -101 -211 -141 -302 -40 -91 -79
-179 -86 -196 -64 -140 -150 -350 -165 -399 -10 -33 -42 -107 -72 -165 -59
-113 -159 -313 -394 -785 -82 -165 -156 -308 -165 -318 -9 -10 -19 -39 -22
-65 -5 -39 -32 -114 -86 -237 -23 -53 -41 -98 -76 -190 -21 -55 -41 -109 -46
-120 -4 -11 -17 -47 -29 -80 -23 -63 -60 -150 -116 -273 -19 -41 -34 -79 -34
-86 0 -6 -4 -16 -9 -22 -4 -5 -16 -31 -26 -59 -22 -64 -30 -84 -44 -115 -29
-65 -39 -108 -28 -119 16 -16 3203 -16 3213 0 6 10 -186 397 -755 1524 -78
154 -148 281 -155 283 -10 2 -66 -66 -66 -81 0 -2 -23 -44 -51 -93 -61 -106
-75 -130 -119 -209 -18 -33 -45 -80 -58 -105 -44 -78 -120 -222 -164 -308 -50
-100 -84 -123 -198 -142 -135 -21 -155 -25 -345 -72 -22 -5 -53 -12 -69 -15
l-29 -6 43 79 c24 44 76 138 115 209 171 308 306 564 403 765 58 118 112 226
122 240 47 67 200 348 415 760 280 534 259 493 469 920 265 539 441 845 472
819 7 -6 27 -36 45 -67 18 -31 64 -106 104 -167 204 -314 311 -502 475 -839
54 -110 150 -308 214 -439 64 -131 116 -240 116 -242 0 -13 122 -224 171 -297
32 -48 77 -131 100 -185 142 -335 246 -545 349 -700 46 -69 77 -129 96 -185
15 -46 38 -117 52 -158 25 -77 109 -254 143 -302 11 -14 19 -28 19 -31 0 -3
34 -61 76 -128 42 -67 78 -127 80 -134 5 -12 -90 -35 -146 -35 -18 0 -47 -4
-64 -9 -17 -5 -69 -15 -116 -21 -47 -7 -110 -16 -140 -21 -30 -5 -86 -13 -125
-18 l-70 -9 -28 32 c-42 46 -114 155 -209 316 -110 187 -115 196 -123 252 -5
31 -41 109 -114 240 -58 107 -133 250 -166 319 -88 182 -465 935 -538 1074
-60 114 -224 428 -254 488 -8 15 -18 27 -23 27 -8 0 -90 -123 -90 -135 0 -3
-11 -22 -24 -43 -61 -97 -335 -591 -346 -626 -18 -56 -7 -108 38 -184 44 -75
67 -126 145 -327 200 -510 226 -570 326 -745 34 -58 61 -112 61 -121 0 -17 61
-184 110 -304 16 -38 67 -149 113 -245 77 -161 114 -231 209 -396 19 -34 38
-82 42 -108 4 -26 18 -58 32 -76 l26 -30 1403 0 c895 0 1406 4 1410 10 3 5 -4
31 -16 57 -40 89 -101 217 -179 378 -43 88 -98 203 -123 255 -55 116 -150 314
-247 515 -40 83 -94 195 -120 250 -26 55 -82 172 -125 260 -42 88 -100 207
-127 265 -90 190 -181 377 -439 908 -60 123 -109 226 -109 229 0 14 -317 659
-379 772 -54 97 -130 242 -352 671 -83 160 -248 514 -304 650 -34 85 -76 184
-93 220 -16 36 -44 99 -62 140 -18 41 -46 103 -61 138 -16 34 -29 64 -29 67 0
8 -87 193 -227 485 -52 107 -119 249 -151 314 -31 66 -91 187 -132 270 -71
144 -77 151 -107 154 -27 3 -35 -3 -62 -42 -17 -24 -31 -47 -31 -49 0 -3 -30
-56 -67 -118 -36 -62 -95 -178 -130 -258 -70 -159 -98 -217 -149 -302 -19 -31
-34 -59 -34 -61 0 -3 -31 -60 -70 -127 -38 -68 -70 -124 -70 -126 0 -2 -29
-54 -65 -115 -36 -61 -65 -113 -65 -115 0 -3 -13 -26 -29 -52 -15 -27 -63
-110 -106 -187 l-78 -138 -18 38 c-10 22 -18 42 -19 46 0 4 -13 37 -30 73 -16
36 -30 68 -30 71 0 3 -6 20 -14 37 -30 68 -46 106 -86 202 -23 55 -53 124 -66
153 -13 29 -24 55 -24 57 0 3 -11 28 -25 57 -14 28 -25 55 -25 59 0 4 -18 47
-40 94 -22 47 -40 88 -40 91 0 2 -16 38 -35 80 -19 41 -35 77 -35 80 0 6 -239
555 -263 603 -24 48 -36 57 -52 38z"/>
</g>
</svg>
